<?xml version="1.0" encoding="UTF-8"?>
<svg viewBox="0 0 180 180" version="1.1" xmlns="http://www.w3.org/2000/svg">
  <g transform="translate(50.000000, 4.000000)">
    <path d="M11.2231378,120 C8.15211456,120 5.52782501,118.911386 3.35019037,116.734124 C1.17255574,114.556863 0.0837547594,111.933023 0.0837547594,108.862526 L0.0837547594,59.9581298 C0.0837547594,57.1109418 1.08880182,54.5708416 3.0989261,52.337753 C5.49990787,49.8255283 8.23586931,48.5694348 11.3068925,48.5694348 L21.6087279,48.7369156 L45.0600605,48.7369156 C48.577778,48.7369156 51.5789602,47.550605 54.0636972,45.1779484 C56.5484341,42.8052917 57.9303738,39.8046239 58.2095577,36.1758548 C58.153721,36.0083732 58.125803,35.8408941 58.125803,35.6734124 C58.125803,31.932989 56.8555352,28.7927552 54.3149614,26.2526169 C51.7743877,23.7124786 48.6615336,22.4424285 44.9763058,22.4424285 L21.5249732,22.4424285 L11.2231378,22.5261689 C8.20795134,22.5261689 5.58366179,21.3956847 3.35019037,19.1346825 C1.11671896,16.8736803 0,14.2079707 0,11.1374738 C0,8.06697697 1.08880098,5.44313719 3.26643561,3.26587579 C5.44407025,1.08861438 8.0683598,0 11.139383,0 L20.1011422,0 L35.6795275,0.0837404047 C36.070385,0.0279131891 36.4333186,0 36.7683394,0 L44.3900225,0.0837404047 C44.5575328,0.0279131891 44.7529586,0 44.9763058,0 C45.8138576,0 46.7072327,0.0279131891 47.6564581,0.0837404047 C56.9253645,-0.0837412421 64.2398736,2.6238381 69.600205,8.20655967 C72.2245339,10.4396483 74.4858898,13.0634881 76.3843405,16.0781577 L76.9706238,16.7480809 L77.1381334,17.0830426 C80.2649933,22.7774186 81.7725639,28.9183202 81.6608904,35.5059316 C81.7167272,45.3315216 78.5340781,53.7054783 72.1128478,60.628053 C65.2449232,67.5506278 56.1994996,71.0118632 44.9763058,71.0118632 L22.3625207,71.0956036 L22.3625207,108.862526 C22.3625207,111.933023 21.2737198,114.556863 19.0960851,116.734124 C16.9184505,118.911386 14.294161,120 11.2231378,120 Z M11.3068925,52.6727146 C9.35260502,52.6727146 7.62169064,53.4821971 6.11409743,55.1011863 L6.03034267,55.1011863 C4.74609661,56.4968667 4.10398321,58.1158317 4.10398321,59.9581298 L4.10398321,108.862526 C4.10398321,110.816479 4.80193256,112.477313 6.19785219,113.84508 C7.59377183,115.212847 9.26885026,115.89672 11.2231378,115.89672 C13.1774252,115.89672 14.8385447,115.212847 16.2065459,113.84508 C17.5745472,112.477313 18.2585375,110.816479 18.2585375,108.862526 L18.2585375,69.0858339 C18.2585375,68.5275618 18.4539634,68.0530375 18.8448209,67.662247 C19.2356784,67.2714565 19.7102839,67.0760642 20.2686518,67.0760642 L44.892551,66.9085834 C55.1665195,66.9085834 63.262732,63.8660458 69.1814312,57.7808793 C74.8767833,51.6398856 77.6685807,44.2149773 77.5569072,35.5059316 L77.5569072,35.4221912 C77.7244175,29.671988 76.4401907,24.2568293 73.7041882,19.1765527 L73.1179049,18.5066294 C73.0620681,18.4508022 73.0062322,18.3670627 72.9503954,18.2554082 C71.3311286,15.5757019 69.3210345,13.2589072 66.9200527,11.3049546 C66.8642159,11.2491274 66.836298,11.193301 66.836298,11.1374738 C64.7145001,8.96021242 62.2158415,7.25750789 59.340247,6.02930914 C56.4646526,4.8011104 52.5421772,4.15910705 47.5727033,4.10327983 L47.4889486,4.10327983 C46.8189071,4.04745262 46.1488758,4.01953943 45.4788343,4.01953943 C45.311324,4.07536664 45.1438161,4.10327983 44.9763058,4.10327983 L36.7683394,4.10327983 C36.5449922,4.10327983 36.2937304,4.13119302 36.0145465,4.18702024 L35.7632822,4.18702024 L20.1011422,4.01953943 L11.139383,4.01953943 C9.1850955,4.01953943 7.51001707,4.71736916 6.11409743,6.11304955 C4.7181778,7.50872994 4.02022845,9.18352128 4.02022845,11.1374738 C4.02022845,13.0914264 4.73213678,14.7941309 6.15597481,16.2456385 C7.57981284,17.6971461 9.26885026,18.422889 11.2231378,18.422889 L21.5249732,18.3391486 L44.9763058,18.3391486 C49.6665957,18.3391486 53.644907,19.9162438 56.911359,23.0704815 C60.1778109,26.2247192 61.9226843,30.2302618 62.1460314,35.0872296 C62.2018682,35.2547112 62.2297862,35.4501036 62.2297862,35.6734124 C62.0622758,40.5862074 60.3453204,44.661533 57.0788685,47.8995115 C53.8124166,51.13749 49.8061873,52.756455 45.0600605,52.756455 L21.6087279,52.756455 L11.3068925,52.6727146 Z" fill="#F37327"></path>
    <path d="M70.311804,120 C67.238292,120 64.5347803,118.892604 62.2011878,116.677778 L46.6629547,101.088889 C44.443196,98.6469014 43.3333333,95.9635949 43.3333333,93.0388889 C43.3333333,90.1141829 44.443196,87.4308764 46.6629547,84.9888889 C48.9965472,82.774063 51.6716009,81.6666667 54.688196,81.6666667 C57.761708,81.6666667 60.4652197,82.774063 62.7988122,84.9888889 L78.3370453,100.492593 C80.556804,102.991371 81.6666667,105.688874 81.6666667,108.585185 C81.6666667,111.481496 80.556804,114.179 78.3370453,116.677778 C76.0034528,118.892604 73.3283991,120 70.311804,120 Z M54.688196,85.7555556 C52.7530218,85.7555556 51.0455407,86.465425 49.5657016,87.8851852 C48.1427793,89.4185262 47.4313289,91.1506076 47.4313289,93.0814815 C47.4313289,95.0123553 48.1427793,96.716042 49.5657016,98.1925926 L65.1039347,113.696296 C66.6406907,115.116056 68.3766298,115.825926 70.311804,115.825926 C72.2469782,115.825926 73.9544593,115.116056 75.4342984,113.696296 C76.8572207,112.219746 77.5686711,110.516059 77.5686711,108.585185 C77.5686711,106.654311 76.8572207,104.950625 75.4342984,103.474074 L59.8960653,87.8851852 C58.3593093,86.465425 56.6233702,85.7555556 54.688196,85.7555556 Z" id="Combined-Shape-Copy" fill="#0079F2"></path>
  </g>
</svg>
