<?xml version="1.0" encoding="UTF-8"?>
<svg width="16px" height="16px" viewBox="0 0 16 16" version="1.1" xmlns="http://www.w3.org/2000/svg" xmlns:xlink="http://www.w3.org/1999/xlink">
    <!-- Generator: Sketch 51.2 (57519) - http://www.bohemiancoding.com/sketch -->
    <title>favico</title>
    <desc>Created with Sketch.</desc>
    <defs></defs>
    <g id="favico" stroke="none" stroke-width="1" fill="none" fill-rule="evenodd">
        <g id="Group" transform="translate(1.000000, 1.000000)">
            <rect id="Rectangle" fill="#0079F2" x="0" y="0" width="14" height="14"></rect>
            <path d="M9.26606741,5.40598307 C9.26606741,5.9640327 9.12865457,6.43737127 8.85382476,6.82601297 C8.57899495,7.21465467 8.43613756,7.48266488 7.86919472,7.68743811 L10,11.0023956 L8.43613756,11.0023956 L6.52224725,7.90523569 L5.3032187,7.90523569 L5.3032187,11.0023956 L4,11.0023956 L4,3.00239563 L6.16493882,3.00239563 C6.52310412,3.00239563 6.85644108,3.02531518 7.16495971,3.07115497 C7.47347833,3.11699476 7.7376656,3.18575342 7.95752945,3.277433 C8.37597999,3.45680609 8.69867854,3.72287219 8.92563477,4.07563928 C9.152591,4.42840636 9.26606741,4.87184986 9.26606741,5.40598307 Z M5.94684916,6.67952567 C6.24472921,6.67952567 6.49739154,6.66457814 6.70484372,6.63468263 C6.91229589,6.60478711 7.08694318,6.55994451 7.22879083,6.50015348 C7.49120897,6.38854355 7.67294853,6.23607871 7.77401498,6.04275437 C7.87508142,5.84943004 7.92561389,5.62721004 7.92561389,5.37608771 C7.92561389,5.16083999 7.88571984,4.97050807 7.80593054,4.80508621 C7.72614124,4.63966436 7.59050146,4.50912257 7.39900715,4.41345692 C7.27489046,4.34967982 7.11886039,4.30284421 6.93091227,4.27294869 C6.74296414,4.24305318 6.51069211,4.22810564 6.2340892,4.22810564 L5.3032187,4.22810564 L5.3032187,6.67952567 L5.94684916,6.67952567 Z" id="R" fill="#FFFFFF"></path>
        </g>
    </g>
</svg>